<svg width="116" height="41" viewBox="0 0 116 41" fill="none" xmlns="http://www.w3.org/2000/svg">
<path d="M36.0976 30.4878C37.1326 30.4878 38.1252 30.0664 38.857 29.3162C39.5889 28.5661 40 27.5487 40 26.4878V4.48779C40 3.42693 39.5889 2.40951 38.857 1.65937C38.1252 0.90922 37.1326 0.487793 36.0976 0.487793H15.5317C16.2146 1.70779 16.5854 3.08779 16.5854 4.48779H36.0976V26.4878H18.5366V30.4878M26.3415 10.4878V14.4878H14.6341V40.4878H10.7317V28.4878H6.82927V40.4878H2.92683V24.4878H0V14.4878C0 13.4269 0.411148 12.4095 1.143 11.6594C1.87485 10.9092 2.86745 10.4878 3.90244 10.4878H26.3415ZM12.6829 4.48779C12.6829 5.54866 12.2718 6.56607 11.5399 7.31622C10.8081 8.06637 9.81548 8.48779 8.78049 8.48779C7.7455 8.48779 6.7529 8.06637 6.02105 7.31622C5.2892 6.56607 4.87805 5.54866 4.87805 4.48779C4.87805 3.42693 5.2892 2.40951 6.02105 1.65937C6.7529 0.90922 7.7455 0.487793 8.78049 0.487793C9.81548 0.487793 10.8081 0.90922 11.5399 1.65937C12.2718 2.40951 12.6829 3.42693 12.6829 4.48779Z" fill="black"/>
<path d="M48.12 28.4878V11.0332H54.6655C56.0064 11.0332 57.1314 11.2832 58.0405 11.7832C58.9553 12.2832 59.6456 12.9707 60.1115 13.8457C60.5831 14.7151 60.8189 15.7037 60.8189 16.8117C60.8189 17.931 60.5831 18.9253 60.1115 19.7946C59.6399 20.6639 58.9439 21.3486 58.0234 21.8486C57.103 22.3429 55.9695 22.5901 54.6229 22.5901H50.2848V19.9906H54.1967C54.9808 19.9906 55.6229 19.8543 56.1229 19.5815C56.6229 19.3088 56.9922 18.9338 57.2308 18.4565C57.4751 17.9793 57.5973 17.431 57.5973 16.8117C57.5973 16.1923 57.4751 15.6469 57.2308 15.1753C56.9922 14.7037 56.62 14.3372 56.1143 14.0759C55.6143 13.8088 54.9695 13.6753 54.1797 13.6753H51.282V28.4878H48.12ZM63.429 28.4878V15.3969H66.4205V17.5787H66.5568C66.7955 16.823 67.2045 16.2406 67.7841 15.8315C68.3693 15.4168 69.0369 15.2094 69.7869 15.2094C69.9574 15.2094 70.1477 15.2179 70.358 15.235C70.5739 15.2463 70.7528 15.2662 70.8949 15.2946V18.1327C70.7642 18.0872 70.5568 18.0475 70.2727 18.0134C69.9943 17.9736 69.7244 17.9537 69.4631 17.9537C68.9006 17.9537 68.3949 18.0759 67.946 18.3202C67.5028 18.5588 67.1534 18.8912 66.8977 19.3173C66.642 19.7435 66.5142 20.235 66.5142 20.7918V28.4878H63.429ZM78.1158 28.7435C76.8374 28.7435 75.7294 28.4622 74.7919 27.8997C73.8544 27.3372 73.1271 26.5503 72.6101 25.5389C72.0987 24.5276 71.843 23.3457 71.843 21.9935C71.843 20.6412 72.0987 19.4565 72.6101 18.4395C73.1271 17.4225 73.8544 16.6327 74.7919 16.0702C75.7294 15.5077 76.8374 15.2264 78.1158 15.2264C79.3942 15.2264 80.5021 15.5077 81.4396 16.0702C82.3771 16.6327 83.1016 17.4225 83.6129 18.4395C84.13 19.4565 84.3885 20.6412 84.3885 21.9935C84.3885 23.3457 84.13 24.5276 83.6129 25.5389C83.1016 26.5503 82.3771 27.3372 81.4396 27.8997C80.5021 28.4622 79.3942 28.7435 78.1158 28.7435ZM78.1328 26.2719C78.826 26.2719 79.4055 26.0815 79.8714 25.7009C80.3374 25.3145 80.6839 24.7975 80.9112 24.1497C81.1442 23.502 81.2607 22.7804 81.2607 21.985C81.2607 21.1838 81.1442 20.4594 80.9112 19.8117C80.6839 19.1582 80.3374 18.6384 79.8714 18.252C79.4055 17.8656 78.826 17.6725 78.1328 17.6725C77.4226 17.6725 76.8317 17.8656 76.3601 18.252C75.8942 18.6384 75.5447 19.1582 75.3118 19.8117C75.0845 20.4594 74.9709 21.1838 74.9709 21.985C74.9709 22.7804 75.0845 23.502 75.3118 24.1497C75.5447 24.7975 75.8942 25.3145 76.3601 25.7009C76.8317 26.0815 77.4226 26.2719 78.1328 26.2719ZM93.6378 15.3969V17.7832H85.8991V15.3969H93.6378ZM87.8338 28.4878V14.1611C87.8338 13.2804 88.0156 12.5475 88.3793 11.9622C88.7486 11.377 89.2429 10.9395 89.8622 10.6497C90.4815 10.36 91.169 10.2151 91.9247 10.2151C92.4588 10.2151 92.9332 10.2577 93.348 10.3429C93.7628 10.4281 94.0696 10.5048 94.2685 10.573L93.6548 12.9594C93.5241 12.9196 93.3594 12.8798 93.1605 12.8401C92.9616 12.7946 92.7401 12.7719 92.4957 12.7719C91.9219 12.7719 91.5156 12.9111 91.277 13.1895C91.044 13.4622 90.9276 13.8543 90.9276 14.3656V28.4878H87.8338ZM97.6115 28.4878H94.2365L100.381 11.0332H104.285L110.438 28.4878H107.063L102.401 14.6128H102.265L97.6115 28.4878ZM97.7223 21.644H106.927V24.1838H97.7223V21.644ZM115.899 11.0332V28.4878H112.737V11.0332H115.899Z" fill="black"/>
</svg>
